<svg xmlns="http://www.w3.org/2000/svg" viewBox="0 0 256 256" fill="none"><defs><linearGradient id="icframe" x1="0" y1="0" x2="0" y2="1"><stop offset="0" stop-color="#26272B"/><stop offset="1" stop-color="#17181A"/></linearGradient></defs><rect x="8" y="14" width="240" height="236" rx="56" fill="#08080A"/><rect x="8" y="8" width="240" height="236" rx="56" fill="url(#icframe)"/><rect x="8.5" y="8.5" width="239" height="235" rx="55.5" stroke="#fff" stroke-opacity=".10"/><svg x="56" y="54" width="144" height="144" viewBox="0 0 120 120"><rect x="11" y="11" width="12.5" height="12.5" rx="2.5" fill="#EDEEEF"/><rect x="25" y="11" width="12.5" height="12.5" rx="2.5" fill="#EDEEEF"/><rect x="11" y="25" width="12.5" height="12.5" rx="2.5" fill="#EDEEEF"/><rect x="81" y="11" width="12.5" height="12.5" rx="2.5" fill="#EDEEEF"/><rect x="95" y="11" width="12.5" height="12.5" rx="2.5" fill="#EDEEEF"/><rect x="95" y="25" width="12.5" height="12.5" rx="2.5" fill="#EDEEEF"/><rect x="11" y="81" width="12.5" height="12.5" rx="2.5" fill="#EDEEEF"/><rect x="11" y="95" width="12.5" height="12.5" rx="2.5" fill="#EDEEEF"/><rect x="25" y="95" width="12.5" height="12.5" rx="2.5" fill="#EDEEEF"/><rect x="95" y="81" width="12.5" height="12.5" rx="2.5" fill="#EDEEEF"/><rect x="95" y="95" width="12.5" height="12.5" rx="2.5" fill="#EDEEEF"/><rect x="81" y="95" width="12.5" height="12.5" rx="2.5" fill="#EDEEEF"/><rect x="52" y="52" width="14.5" height="14.5" rx="3" fill="#9F8BFF"/></svg></svg>