<svg xmlns="http://www.w3.org/2000/svg" viewBox="0 0 120 120" fill="none"><rect x="16.5" y="4" width="10.5" height="10.5" rx="2.5" fill="#EDEEEF" opacity="1.00"/><rect x="29" y="4" width="10.5" height="10.5" rx="2.5" fill="#EDEEEF" opacity="0.97"/><rect x="41.5" y="4" width="10.5" height="10.5" rx="2.5" fill="#EDEEEF" opacity="0.94"/><rect x="54" y="4" width="10.5" height="10.5" rx="2.5" fill="#EDEEEF" opacity="0.91"/><rect x="66.5" y="4" width="10.5" height="10.5" rx="2.5" fill="#EDEEEF" opacity="0.88"/><rect x="79" y="4" width="10.5" height="10.5" rx="2.5" fill="#EDEEEF" opacity="0.85"/><rect x="91.5" y="4" width="10.5" height="10.5" rx="2.5" fill="#EDEEEF" opacity="0.82"/><rect x="104" y="16.5" width="10.5" height="10.5" rx="2.5" fill="#EDEEEF" opacity="0.79"/><rect x="104" y="29" width="10.5" height="10.5" rx="2.5" fill="#EDEEEF" opacity="0.77"/><rect x="104" y="41.5" width="10.5" height="10.5" rx="2.5" fill="#EDEEEF" opacity="0.74"/><rect x="104" y="54" width="10.5" height="10.5" rx="2.5" fill="#EDEEEF" opacity="0.71"/><rect x="104" y="66.5" width="10.5" height="10.5" rx="2.5" fill="#EDEEEF" opacity="0.68"/><rect x="104" y="79" width="10.5" height="10.5" rx="2.5" fill="#EDEEEF" opacity="0.65"/><rect x="104" y="91.5" width="10.5" height="10.5" rx="2.5" fill="#EDEEEF" opacity="0.62"/><rect x="91.5" y="104" width="10.5" height="10.5" rx="2.5" fill="#EDEEEF" opacity="0.59"/><rect x="79" y="104" width="10.5" height="10.5" rx="2.5" fill="#EDEEEF" opacity="0.56"/><rect x="66.5" y="104" width="10.5" height="10.5" rx="2.5" fill="#EDEEEF" opacity="0.53"/><rect x="54" y="104" width="10.5" height="10.5" rx="2.5" fill="#EDEEEF" opacity="0.50"/><rect x="41.5" y="104" width="10.5" height="10.5" rx="2.5" fill="#EDEEEF" opacity="0.47"/><rect x="29" y="104" width="10.5" height="10.5" rx="2.5" fill="#EDEEEF" opacity="0.44"/><rect x="16.5" y="104" width="10.5" height="10.5" rx="2.5" fill="#EDEEEF" opacity="0.41"/><rect x="4" y="91.5" width="10.5" height="10.5" rx="2.5" fill="#EDEEEF" opacity="0.39"/><rect x="4" y="79" width="10.5" height="10.5" rx="2.5" fill="#EDEEEF" opacity="0.36"/><rect x="4" y="66.5" width="10.5" height="10.5" rx="2.5" fill="#EDEEEF" opacity="0.33"/><rect x="4" y="54" width="10.5" height="10.5" rx="2.5" fill="#EDEEEF" opacity="0.30"/><rect x="4" y="41.5" width="10.5" height="10.5" rx="2.5" fill="#EDEEEF" opacity="0.27"/><rect x="4" y="29" width="10.5" height="10.5" rx="2.5" fill="#EDEEEF" opacity="0.24"/><rect x="4" y="16.5" width="10.5" height="10.5" rx="2.5" fill="#EDEEEF" opacity="0.21"/><rect x="41.5" y="29" width="10.5" height="10.5" rx="2.5" fill="#9F8BFF"/><rect x="54" y="29" width="10.5" height="10.5" rx="2.5" fill="#5B47D6"/><rect x="66.5" y="29" width="10.5" height="10.5" rx="2.5" fill="#5B47D6"/><rect x="29" y="41.5" width="10.5" height="10.5" rx="2.5" fill="#9F8BFF"/><rect x="79" y="41.5" width="10.5" height="10.5" rx="2.5" fill="#5B47D6"/><rect x="29" y="54" width="10.5" height="10.5" rx="2.5" fill="#5B47D6"/><rect x="79" y="54" width="10.5" height="10.5" rx="2.5" fill="#9F8BFF"/><rect x="29" y="66.5" width="10.5" height="10.5" rx="2.5" fill="#5B47D6"/><rect x="79" y="66.5" width="10.5" height="10.5" rx="2.5" fill="#5B47D6"/><rect x="41.5" y="79" width="10.5" height="10.5" rx="2.5" fill="#9F8BFF"/><rect x="54" y="79" width="10.5" height="10.5" rx="2.5" fill="#5B47D6"/><rect x="66.5" y="79" width="10.5" height="10.5" rx="2.5" fill="#5B47D6"/></svg>