<svg xmlns="http://www.w3.org/2000/svg" width="240" height="160" viewBox="0 0 240 160" fill="none"><rect x="29" y="53" width="2" height="2" rx="0.6" fill="#EDEEEF" opacity="0.013"/><rect x="29" y="65" width="2" height="2" rx="0.6" fill="#EDEEEF" opacity="0.018"/><rect x="29" y="77" width="2" height="2" rx="0.6" fill="#EDEEEF" opacity="0.021"/><rect x="29" y="89" width="2" height="2" rx="0.6" fill="#EDEEEF" opacity="0.021"/><rect x="29" y="101" width="2" height="2" rx="0.6" fill="#EDEEEF" opacity="0.018"/><rect x="29" y="113" width="2" height="2" rx="0.6" fill="#EDEEEF" opacity="0.013"/><rect x="41" y="41" width="2" height="2" rx="0.6" fill="#EDEEEF" opacity="0.012"/><rect x="41" y="53" width="2" height="2" rx="0.6" fill="#EDEEEF" opacity="0.021"/><rect x="41" y="65" width="2" height="2" rx="0.6" fill="#EDEEEF" opacity="0.028"/><rect x="41" y="77" width="2" height="2" rx="0.6" fill="#EDEEEF" opacity="0.032"/><rect x="41" y="89" width="2" height="2" rx="0.6" fill="#EDEEEF" opacity="0.032"/><rect x="41" y="101" width="2" height="2" rx="0.6" fill="#EDEEEF" opacity="0.028"/><rect x="41" y="113" width="2" height="2" rx="0.6" fill="#EDEEEF" opacity="0.021"/><rect x="41" y="125" width="2" height="2" rx="0.6" fill="#EDEEEF" opacity="0.012"/><rect x="53" y="41" width="2" height="2" rx="0.6" fill="#EDEEEF" opacity="0.019"/><rect x="53" y="53" width="2" height="2" rx="0.6" fill="#EDEEEF" opacity="0.030"/><rect x="53" y="65" width="2" height="2" rx="0.6" fill="#EDEEEF" opacity="0.039"/><rect x="53" y="77" width="2" height="2" rx="0.6" fill="#EDEEEF" opacity="0.044"/><rect x="53" y="89" width="2" height="2" rx="0.6" fill="#EDEEEF" opacity="0.044"/><rect x="53" y="101" width="2" height="2" rx="0.6" fill="#EDEEEF" opacity="0.039"/><rect x="53" y="113" width="2" height="2" rx="0.6" fill="#EDEEEF" opacity="0.030"/><rect x="53" y="125" width="2" height="2" rx="0.6" fill="#EDEEEF" opacity="0.019"/><rect x="65" y="29" width="2" height="2" rx="0.6" fill="#EDEEEF" opacity="0.014"/><rect x="65" y="41" width="2" height="2" rx="0.6" fill="#EDEEEF" opacity="0.026"/><rect x="65" y="53" width="2" height="2" rx="0.6" fill="#EDEEEF" opacity="0.039"/><rect x="65" y="65" width="2" height="2" rx="0.6" fill="#EDEEEF" opacity="0.051"/><rect x="65" y="77" width="2" height="2" rx="0.6" fill="#EDEEEF" opacity="0.058"/><rect x="65" y="89" width="2" height="2" rx="0.6" fill="#EDEEEF" opacity="0.058"/><rect x="65" y="101" width="2" height="2" rx="0.6" fill="#EDEEEF" opacity="0.051"/><rect x="65" y="113" width="2" height="2" rx="0.6" fill="#EDEEEF" opacity="0.039"/><rect x="65" y="125" width="2" height="2" rx="0.6" fill="#EDEEEF" opacity="0.026"/><rect x="65" y="137" width="2" height="2" rx="0.6" fill="#EDEEEF" opacity="0.014"/><rect x="77" y="29" width="2" height="2" rx="0.6" fill="#EDEEEF" opacity="0.018"/><rect x="77" y="41" width="2" height="2" rx="0.6" fill="#EDEEEF" opacity="0.033"/><rect x="77" y="53" width="2" height="2" rx="0.6" fill="#EDEEEF" opacity="0.049"/><rect x="77" y="65" width="2" height="2" rx="0.6" fill="#EDEEEF" opacity="0.064"/><rect x="77" y="77" width="2" height="2" rx="0.6" fill="#EDEEEF" opacity="0.074"/><rect x="77" y="89" width="2" height="2" rx="0.6" fill="#EDEEEF" opacity="0.074"/><rect x="77" y="101" width="2" height="2" rx="0.6" fill="#EDEEEF" opacity="0.064"/><rect x="77" y="113" width="2" height="2" rx="0.6" fill="#EDEEEF" opacity="0.049"/><rect x="77" y="125" width="2" height="2" rx="0.6" fill="#EDEEEF" opacity="0.033"/><rect x="77" y="137" width="2" height="2" rx="0.6" fill="#EDEEEF" opacity="0.018"/><rect x="89" y="29" width="2" height="2" rx="0.6" fill="#EDEEEF" opacity="0.022"/><rect x="89" y="41" width="2" height="2" rx="0.6" fill="#EDEEEF" opacity="0.039"/><rect x="89" y="53" width="2" height="2" rx="0.6" fill="#EDEEEF" opacity="0.058"/><rect x="89" y="65" width="2" height="2" rx="0.6" fill="#EDEEEF" opacity="0.076"/><rect x="89" y="77" width="2" height="2" rx="0.6" fill="#EDEEEF" opacity="0.090"/><rect x="89" y="89" width="2" height="2" rx="0.6" fill="#EDEEEF" opacity="0.090"/><rect x="89" y="101" width="2" height="2" rx="0.6" fill="#EDEEEF" opacity="0.076"/><rect x="89" y="113" width="2" height="2" rx="0.6" fill="#EDEEEF" opacity="0.058"/><rect x="89" y="125" width="2" height="2" rx="0.6" fill="#EDEEEF" opacity="0.039"/><rect x="89" y="137" width="2" height="2" rx="0.6" fill="#EDEEEF" opacity="0.022"/><rect x="101" y="29" width="2" height="2" rx="0.6" fill="#EDEEEF" opacity="0.025"/><rect x="101" y="41" width="2" height="2" rx="0.6" fill="#EDEEEF" opacity="0.043"/><rect x="101" y="53" width="2" height="2" rx="0.6" fill="#EDEEEF" opacity="0.065"/><rect x="101" y="65" width="2" height="2" rx="0.6" fill="#EDEEEF" opacity="0.087"/><rect x="101" y="77" width="2" height="2" rx="0.6" fill="#EDEEEF" opacity="0.107"/><rect x="101" y="89" width="2" height="2" rx="0.6" fill="#EDEEEF" opacity="0.107"/><rect x="101" y="101" width="2" height="2" rx="0.6" fill="#EDEEEF" opacity="0.087"/><rect x="101" y="113" width="2" height="2" rx="0.6" fill="#EDEEEF" opacity="0.065"/><rect x="101" y="125" width="2" height="2" rx="0.6" fill="#EDEEEF" opacity="0.043"/><rect x="101" y="137" width="2" height="2" rx="0.6" fill="#EDEEEF" opacity="0.025"/><rect x="113" y="29" width="2" height="2" rx="0.6" fill="#EDEEEF" opacity="0.027"/><rect x="113" y="41" width="2" height="2" rx="0.6" fill="#EDEEEF" opacity="0.046"/><rect x="113" y="53" width="2" height="2" rx="0.6" fill="#EDEEEF" opacity="0.069"/><rect x="113" y="65" width="2" height="2" rx="0.6" fill="#EDEEEF" opacity="0.094"/><rect x="113" y="77" width="2" height="2" rx="0.6" fill="#EDEEEF" opacity="0.121"/><rect x="113" y="89" width="2" height="2" rx="0.6" fill="#EDEEEF" opacity="0.121"/><rect x="113" y="101" width="2" height="2" rx="0.6" fill="#EDEEEF" opacity="0.094"/><rect x="113" y="113" width="2" height="2" rx="0.6" fill="#EDEEEF" opacity="0.069"/><rect x="113" y="125" width="2" height="2" rx="0.6" fill="#EDEEEF" opacity="0.046"/><rect x="113" y="137" width="2" height="2" rx="0.6" fill="#EDEEEF" opacity="0.027"/><rect x="125" y="29" width="2" height="2" rx="0.6" fill="#EDEEEF" opacity="0.027"/><rect x="125" y="41" width="2" height="2" rx="0.6" fill="#EDEEEF" opacity="0.046"/><rect x="125" y="53" width="2" height="2" rx="0.6" fill="#EDEEEF" opacity="0.069"/><rect x="125" y="65" width="2" height="2" rx="0.6" fill="#EDEEEF" opacity="0.094"/><rect x="125" y="77" width="2" height="2" rx="0.6" fill="#EDEEEF" opacity="0.121"/><rect x="125" y="89" width="2" height="2" rx="0.6" fill="#EDEEEF" opacity="0.121"/><rect x="125" y="101" width="2" height="2" rx="0.6" fill="#EDEEEF" opacity="0.094"/><rect x="125" y="113" width="2" height="2" rx="0.6" fill="#EDEEEF" opacity="0.069"/><rect x="125" y="125" width="2" height="2" rx="0.6" fill="#EDEEEF" opacity="0.046"/><rect x="125" y="137" width="2" height="2" rx="0.6" fill="#EDEEEF" opacity="0.027"/><rect x="137" y="29" width="2" height="2" rx="0.6" fill="#EDEEEF" opacity="0.025"/><rect x="137" y="41" width="2" height="2" rx="0.6" fill="#EDEEEF" opacity="0.043"/><rect x="137" y="53" width="2" height="2" rx="0.6" fill="#EDEEEF" opacity="0.065"/><rect x="137" y="65" width="2" height="2" rx="0.6" fill="#EDEEEF" opacity="0.087"/><rect x="137" y="77" width="2" height="2" rx="0.6" fill="#EDEEEF" opacity="0.107"/><rect x="137" y="89" width="2" height="2" rx="0.6" fill="#EDEEEF" opacity="0.107"/><rect x="137" y="101" width="2" height="2" rx="0.6" fill="#EDEEEF" opacity="0.087"/><rect x="137" y="113" width="2" height="2" rx="0.6" fill="#EDEEEF" opacity="0.065"/><rect x="137" y="125" width="2" height="2" rx="0.6" fill="#EDEEEF" opacity="0.043"/><rect x="137" y="137" width="2" height="2" rx="0.6" fill="#EDEEEF" opacity="0.025"/><rect x="149" y="29" width="2" height="2" rx="0.6" fill="#EDEEEF" opacity="0.022"/><rect x="149" y="41" width="2" height="2" rx="0.6" fill="#EDEEEF" opacity="0.039"/><rect x="149" y="53" width="2" height="2" rx="0.6" fill="#EDEEEF" opacity="0.058"/><rect x="149" y="65" width="2" height="2" rx="0.6" fill="#EDEEEF" opacity="0.076"/><rect x="149" y="77" width="2" height="2" rx="0.6" fill="#EDEEEF" opacity="0.090"/><rect x="149" y="89" width="2" height="2" rx="0.6" fill="#EDEEEF" opacity="0.090"/><rect x="149" y="101" width="2" height="2" rx="0.6" fill="#EDEEEF" opacity="0.076"/><rect x="149" y="113" width="2" height="2" rx="0.6" fill="#EDEEEF" opacity="0.058"/><rect x="149" y="125" width="2" height="2" rx="0.6" fill="#EDEEEF" opacity="0.039"/><rect x="149" y="137" width="2" height="2" rx="0.6" fill="#EDEEEF" opacity="0.022"/><rect x="161" y="29" width="2" height="2" rx="0.6" fill="#EDEEEF" opacity="0.018"/><rect x="161" y="41" width="2" height="2" rx="0.6" fill="#EDEEEF" opacity="0.033"/><rect x="161" y="53" width="2" height="2" rx="0.6" fill="#EDEEEF" opacity="0.049"/><rect x="161" y="65" width="2" height="2" rx="0.6" fill="#EDEEEF" opacity="0.064"/><rect x="161" y="77" width="2" height="2" rx="0.6" fill="#EDEEEF" opacity="0.074"/><rect x="161" y="89" width="2" height="2" rx="0.6" fill="#EDEEEF" opacity="0.074"/><rect x="161" y="101" width="2" height="2" rx="0.6" fill="#EDEEEF" opacity="0.064"/><rect x="161" y="113" width="2" height="2" rx="0.6" fill="#EDEEEF" opacity="0.049"/><rect x="161" y="125" width="2" height="2" rx="0.6" fill="#EDEEEF" opacity="0.033"/><rect x="161" y="137" width="2" height="2" rx="0.6" fill="#EDEEEF" opacity="0.018"/><rect x="173" y="29" width="2" height="2" rx="0.6" fill="#EDEEEF" opacity="0.014"/><rect x="173" y="41" width="2" height="2" rx="0.6" fill="#EDEEEF" opacity="0.026"/><rect x="173" y="53" width="2" height="2" rx="0.6" fill="#EDEEEF" opacity="0.039"/><rect x="173" y="65" width="2" height="2" rx="0.6" fill="#EDEEEF" opacity="0.051"/><rect x="173" y="77" width="2" height="2" rx="0.6" fill="#EDEEEF" opacity="0.058"/><rect x="173" y="89" width="2" height="2" rx="0.6" fill="#EDEEEF" opacity="0.058"/><rect x="173" y="101" width="2" height="2" rx="0.6" fill="#EDEEEF" opacity="0.051"/><rect x="173" y="113" width="2" height="2" rx="0.6" fill="#EDEEEF" opacity="0.039"/><rect x="173" y="125" width="2" height="2" rx="0.6" fill="#EDEEEF" opacity="0.026"/><rect x="173" y="137" width="2" height="2" rx="0.6" fill="#EDEEEF" opacity="0.014"/><rect x="185" y="41" width="2" height="2" rx="0.6" fill="#EDEEEF" opacity="0.019"/><rect x="185" y="53" width="2" height="2" rx="0.6" fill="#EDEEEF" opacity="0.030"/><rect x="185" y="65" width="2" height="2" rx="0.6" fill="#EDEEEF" opacity="0.039"/><rect x="185" y="77" width="2" height="2" rx="0.6" fill="#EDEEEF" opacity="0.044"/><rect x="185" y="89" width="2" height="2" rx="0.6" fill="#EDEEEF" opacity="0.044"/><rect x="185" y="101" width="2" height="2" rx="0.6" fill="#EDEEEF" opacity="0.039"/><rect x="185" y="113" width="2" height="2" rx="0.6" fill="#EDEEEF" opacity="0.030"/><rect x="185" y="125" width="2" height="2" rx="0.6" fill="#EDEEEF" opacity="0.019"/><rect x="197" y="41" width="2" height="2" rx="0.6" fill="#EDEEEF" opacity="0.012"/><rect x="197" y="53" width="2" height="2" rx="0.6" fill="#EDEEEF" opacity="0.021"/><rect x="197" y="65" width="2" height="2" rx="0.6" fill="#EDEEEF" opacity="0.028"/><rect x="197" y="77" width="2" height="2" rx="0.6" fill="#EDEEEF" opacity="0.032"/><rect x="197" y="89" width="2" height="2" rx="0.6" fill="#EDEEEF" opacity="0.032"/><rect x="197" y="101" width="2" height="2" rx="0.6" fill="#EDEEEF" opacity="0.028"/><rect x="197" y="113" width="2" height="2" rx="0.6" fill="#EDEEEF" opacity="0.021"/><rect x="197" y="125" width="2" height="2" rx="0.6" fill="#EDEEEF" opacity="0.012"/><rect x="209" y="53" width="2" height="2" rx="0.6" fill="#EDEEEF" opacity="0.013"/><rect x="209" y="65" width="2" height="2" rx="0.6" fill="#EDEEEF" opacity="0.018"/><rect x="209" y="77" width="2" height="2" rx="0.6" fill="#EDEEEF" opacity="0.021"/><rect x="209" y="89" width="2" height="2" rx="0.6" fill="#EDEEEF" opacity="0.021"/><rect x="209" y="101" width="2" height="2" rx="0.6" fill="#EDEEEF" opacity="0.018"/><rect x="209" y="113" width="2" height="2" rx="0.6" fill="#EDEEEF" opacity="0.013"/><rect x="60" y="44" width="14" height="14" rx="4" fill="#EDEEEF" opacity="0.05"/><rect x="60" y="64" width="14" height="14" rx="4" fill="#EDEEEF" opacity="0.05"/><rect x="60" y="84" width="14" height="14" rx="4" fill="#EDEEEF" opacity="0.05"/><rect x="60" y="104" width="14" height="14" rx="4" fill="#EDEEEF" opacity="0.05"/><rect x="80" y="44" width="14" height="14" rx="4" fill="#EDEEEF" opacity="0.05"/><rect x="80" y="64" width="14" height="14" rx="4" fill="#EDEEEF" opacity="0.05"/><rect x="80" y="84" width="14" height="14" rx="4" fill="#EDEEEF" opacity="0.05"/><rect x="80" y="104" width="14" height="14" rx="4" fill="#EDEEEF" opacity="0.05"/><rect x="100" y="44" width="14" height="14" rx="4" fill="#EDEEEF" opacity="0.05"/><rect x="100" y="64" width="14" height="14" rx="4" fill="#EDEEEF" opacity="0.05"/><rect x="100" y="84" width="14" height="14" rx="4" fill="#EDEEEF" opacity="0.05"/><rect x="100" y="104" width="14" height="14" rx="4" fill="#EDEEEF" opacity="0.05"/><rect x="120" y="44" width="14" height="14" rx="4" fill="#EDEEEF" opacity="0.05"/><rect x="120" y="64" width="14" height="14" rx="4" fill="#EDEEEF" opacity="0.05"/><rect x="120" y="84" width="14" height="14" rx="4" fill="#EDEEEF" opacity="0.05"/><rect x="120" y="104" width="14" height="14" rx="4" fill="#EDEEEF" opacity="0.05"/><rect x="140" y="44" width="14" height="14" rx="4" fill="#EDEEEF" opacity="0.05"/><rect x="140" y="64" width="14" height="14" rx="4" fill="#EDEEEF" opacity="0.05"/><rect x="140" y="84" width="14" height="14" rx="4" fill="#EDEEEF" opacity="0.05"/><rect x="140" y="104" width="14" height="14" rx="4" fill="#EDEEEF" opacity="0.05"/><rect x="160" y="44" width="14" height="14" rx="4" fill="#EDEEEF" opacity="0.05"/><rect x="160" y="64" width="14" height="14" rx="4" fill="#EDEEEF" opacity="0.05"/><rect x="160" y="84" width="14" height="14" rx="4" fill="#EDEEEF" opacity="0.05"/><rect x="160" y="104" width="14" height="14" rx="4" fill="#EDEEEF" opacity="0.05"/><defs><radialGradient id="no-results-g0"><stop offset="0" stop-color="#9F8BFF" stop-opacity="0.35"/><stop offset="0.55" stop-color="#9F8BFF" stop-opacity="0.105"/><stop offset="1" stop-color="#9F8BFF" stop-opacity="0"/></radialGradient></defs><ellipse cx="110" cy="72" rx="44" ry="35.2" fill="url(#no-results-g0)"/><circle cx="110" cy="72" r="26" fill="#191A1C" fill-opacity="0.7" stroke="#EDEEEF" stroke-opacity="0.8" stroke-width="5"/><path d="M129 91 l20 20" stroke="#EDEEEF" stroke-opacity="0.8" stroke-width="8" stroke-linecap="round"/><rect x="103" y="65" width="14" height="14" rx="4" fill="#9F8BFF" opacity="0.5"/><path d="M108 70l4 4M112 70l-4 4" stroke="#131315" stroke-width="1.6" stroke-linecap="round"/><path d="M170 39C171.1 42.9 171.1 42.9 175 44C171.1 45.1 171.1 45.1 170 49C168.9 45.1 168.9 45.1 165 44C168.9 42.9 168.9 42.9 170 39Z" fill="#EDEEEF" opacity="0.6"/><path d="M52 116C52.88 119.12 52.88 119.12 56 120C52.88 120.88 52.88 120.88 52 124C51.12 120.88 51.12 120.88 48 120C51.12 119.12 51.12 119.12 52 116Z" fill="#9F8BFF" opacity="0.7"/></svg>